#!OML:ASF F:\VICON\USERDATA\INSTALL\rory3\rory3.ASF
:FULLY-SPECIFIED
:DEGREES
250
root 1.25051 17.8363 15.5453 -3.56509 -1.10725 2.35621
lowerback 10.6389 -0.101569 -3.05147
upperback 1.12561 -0.470209 0.444269
thorax -4.76363 -0.169672 2.25269
lowerneck -16.2158 -1.84294 -2.09722
upperneck 18.8338 -2.1516 0.646481
head 8.57979 -1.09783 0.305168
rclavicle 3.18055e-015 3.97569e-015
rhumerus -30.8535 -16.9017 -80.228
rradius 27.7134
rwrist 4.33542
rhand -17.5794 22.7818
rfingers 7.12502
rthumb 8.67626 -7.01993
lclavicle 3.18055e-015 3.97569e-015
lhumerus -30.4173 -0.973481 80.2436
lradius 29.6286
lwrist 7.93695
lhand -26.8559 26.6457
lfingers 7.12502
lthumb -0.280946 56.6252
rfemur -32.0148 -3.15813 20.9041
rtibia 56.9763
rfoot -10.2347 -7.64247
rtoes -2.62363
lfemur 0.967314 -1.33054 -28.0308
ltibia 25.3105
lfoot -17.7542 -4.47318
ltoes 6.55237
251
root 1.23934 17.8434 15.7159 -3.40092 -1.06114 1.97949
lowerback 10.7493 -0.149217 -2.77678
upperback 1.03394 -0.498538 0.580394
thorax -4.92068 -0.184067 2.24602
lowerneck -16.2572 -1.88529 -2.13843
upperneck 18.9404 -2.21176 0.702608
head 8.62554 -1.1232 0.322871
rclavicle 2.70844e-015 1.59028e-014
rhumerus -31.2319 -16.841 -80.111
rradius 27.7922
rwrist 4.10123
rhand -17.1756 21.2071
rfingers 7.12502
rthumb 9.06585 -8.57807
lclavicle 2.70844e-015 1.59028e-014
lhumerus -29.9448 -1.42551 80.1185
lradius 30.1126
lwrist 8.23396
lhand -26.9218 26.1315
lfingers 7.12502
lthumb -0.34454 56.111
rfemur -32.2138 -2.57028 21.2922
rtibia 54.1259
rfoot -9.93168 -8.55118
rtoes -2.61563
lfemur 1.94454 -1.39926 -27.6277
ltibia 24.4991
lfoot -18.0624 -4.48856
ltoes 7.38122
252
root 1.23088 17.8412 15.8827 -3.19567 -0.836193 1.97089
lowerback 10.7037 -0.267852 -2.90195
upperback 1.0226 -0.664768 0.674583
thorax -4.89478 -0.262921 2.4392
lowerneck -16.219 -1.84951 -2.24678
upperneck 18.8572 -2.14062 0.729581
head 8.59099 -1.09471 0.35908
rclavicle 1.9133e-015 9.93923e-015
rhumerus -31.4095 -16.8988 -79.9919
rradius 27.8855
rwrist 3.80139
rhand -16.5165 20.0697
rfingers 7.12502
rthumb 9.70185 -9.68683
lclavicle 1.9133e-015 9.93923e-015
lhumerus -29.3316 -1.53445 80.0228
lradius 30.6755
lwrist 8.18477
lhand -28.0366 25.7009
lfingers 7.12502
lthumb -1.42123 55.6759
rfemur -32.4085 -2.16471 21.1738
rtibia 51.1775
rfoot -9.72149 -9.31361
rtoes -0.785352
lfemur 2.87 -1.50186 -27.6463
ltibia 23.5994
lfoot -18.2219 -4.47888
ltoes 7.05442
253
root 1.22592 17.8458 16.0577 -3.03036 -0.493612 2.10562
lowerback 10.5043 -0.468062 -3.11523
upperback 0.991629 -0.947111 0.729517
thorax -4.79374 -0.398956 2.65493
lowerneck -16.0075 -1.76825 -2.36962
upperneck 18.8543 -2.00448 0.737597
head 8.55138 -1.03948 0.400213
rclavicle 3.2054e-015 2.38542e-015
rhumerus -31.4819 -16.818 -79.8994
rradius 27.7206
rwrist 3.62649
rhand -16.2332 19.8788
rfingers 7.12502
rthumb 9.97519 -9.86488
lclavicle 3.2054e-015 2.38542e-015
lhumerus -29.0428 -1.63105 79.9279
lradius 31.1816
lwrist 8.53539
lhand -28.397 28.2351
lfingers 7.12502
lthumb -1.76931 58.2075
rfemur -32.4387 -1.81819 20.809
rtibia 48.124
rfoot -9.08936 -9.95308
rtoes 0.201867
lfemur 3.8279 -1.66048 -27.804
ltibia 22.6629
lfoot -18.1352 -4.56236
ltoes 8.0176
254
root 1.21911 17.8453 16.2462 -2.88096 -0.221399 2.1993
lowerback 10.4005 -0.636563 -3.27094
upperback 0.893092 -1.18441 0.778865
thorax -4.81874 -0.510679 2.82734
lowerneck -15.9488 -1.71663 -2.45466
upperneck 18.9516 -1.91805 0.755555
head 8.57358 -1.00365 0.430928
rclavicle -1.11319e-014 -1.15295e-014
rhumerus -31.714 -16.7122 -79.776
rradius 27.6362
rwrist 3.528
rhand -16.277 19.5991
rfingers 7.12502
rthumb 9.93289 -10.1466
lclavicle -1.11319e-014 -1.15295e-014
lhumerus -28.7009 -1.71785 79.7844
lradius 31.357
lwrist 8.81039
lhand -27.9158 29.9319
lfingers 7.12502
lthumb -1.30463 59.9076
rfemur -32.3544 -1.35866 20.4631
rtibia 44.9523
rfoot -8.07122 -10.5678
rtoes -2.31602
lfemur 4.89725 -1.85381 -27.9384
ltibia 21.6242
lfoot -18.0718 -4.48047
ltoes 8.53185
255
root 1.20645 17.8377 16.4345 -2.64367 -0.0257782 2.33468
lowerback 10.1325 -0.707208 -3.50164
upperback 0.905982 -1.29572 0.76754
thorax -4.64272 -0.565174 2.95478
lowerneck -15.9948 -1.75491 -2.43104
upperneck 18.8271 -1.97725 0.766663
head 8.54044 -1.0281 0.423566
rclavicle 9.01985e-015 -1.98785e-015
rhumerus -31.7322 -16.9258 -79.7054
rradius 27.394
rwrist 3.37152
rhand -16.4104 20.0186
rfingers 7.12502
rthumb 9.80418 -9.73318
lclavicle 9.01985e-015 -1.98785e-015
lhumerus -28.0163 -2.32862 79.7251
lradius 31.5179
lwrist 9.28461
lhand -27.5914 29.4626
lfingers 7.12502
lthumb -0.991276 59.44
rfemur -32.3248 -0.72318 20.0777
rtibia 41.6697
rfoot -7.12293 -11.4249
rtoes -5.86868
lfemur 5.88183 -1.98188 -28.1005
ltibia 20.5569
lfoot -18.1126 -4.31145
ltoes 8.02249
256
root 1.19301 17.8342 16.6145 -2.39044 0.193215 2.14417
lowerback 9.79049 -0.837341 -3.39498
upperback 0.985824 -1.44054 0.833211
thorax -4.35803 -0.645732 2.97266
lowerneck -16.1163 -1.78572 -2.37093
upperneck 18.697 -2.03996 0.808559
head 8.51893 -1.0481 0.419576
rclavicle -2.14936e-014 3.57812e-015
rhumerus -31.546 -17.2244 -79.6716
rradius 27.144
rwrist 3.45715
rhand -16.4872 20.3908
rfingers 7.12502
rthumb 9.73013 -9.36447
lclavicle -2.14936e-014 3.57812e-015
lhumerus -27.2426 -3.08542 79.6606
lradius 31.6121
lwrist 9.86609
lhand -27.7107 28.2323
lfingers 7.12502
lthumb -1.10651 58.2091
rfemur -32.2452 0.0391494 19.9891
rtibia 38.3135
rfoot -6.61376 -12.3537
rtoes -8.49139
lfemur 6.83206 -2.12517 -27.8642
ltibia 19.5243
lfoot -18.014 -4.28417
ltoes 7.40661
